<svg xmlns="http://www.w3.org/2000/svg" viewBox="0 0 32 32">
  <rect width="32" height="32" rx="7" fill="#0F172A"/>
  <g transform="translate(4, 4)">
    <svg width="24" height="24" viewBox="0 0 24 24" fill="none" stroke="#F97316" stroke-width="2" stroke-linecap="round" stroke-linejoin="round">
      <path d="M2 21c.6.5 1.2 1 2.5 1 2.5 0 2.5-2 5-2 1.3 0 1.9.5 2.5 1 .6.5 1.2 1 2.5 1 2.5 0 2.5-2 5-2 1.3 0 1.9.5 2.5 1"/>
      <path d="M19.38 20A11.6 11.6 0 0 0 21 14l-9-4-9 4c0 2.278.483 4.428 1.621 6"/>
      <path d="M10 21c.6.5 1.2 1 2.5 1 .56 0 1-.095 1.4-.266"/>
      <line x1="11" y1="15" x2="12" y2="6"/>
      <path d="M16 6l1 5"/>
    </svg>
  </g>
</svg>
